<svg
    id="pest-county-map"
    xmlns="http://www.w3.org/2000/svg"
    width="100%"
    height="100%"
    viewBox="-600 -900 2800 2800"
    preserveAspectRatio="xMidYMid meet"
    xml:space="preserve"
>
    <g>
</g>
    <g>
</g>
    <g>
</g>
    <g>
</g>
    <g>
</g>
    <g>
</g>
    <g>
</g>
    <g>
</g>
    <g>
</g>
    <g>
</g>
    <polygon fill="none" stroke="#646464" stroke-width="2.835" stroke-linecap="round" stroke-linejoin="round" points="
	839.845,809.708 839.845,805.762 827.982,797.855 827.982,793.898 824.03,797.855 820.081,801.806 827.982,809.708 824.03,813.666
	824.03,817.62 816.129,817.62 808.219,813.666 804.266,801.806 804.266,793.898 808.219,789.948 824.03,789.948 827.982,785.997
	824.03,782.043 835.893,782.043 851.701,782.043 859.611,785.997 867.514,782.043 867.514,778.086 859.611,766.231 855.652,758.322
	851.701,750.423 871.468,734.604 875.424,722.746 887.276,722.746 895.186,718.788 895.186,706.936 891.233,699.026
	875.424,691.121 867.514,695.077 863.557,699.026 859.611,687.171 863.557,683.216 875.424,679.26 879.372,675.312 875.424,671.356
	875.424,667.404 875.424,663.452 883.323,655.549 875.424,647.641 855.652,635.784 867.514,616.02 863.557,608.11 851.701,604.155
	847.743,584.39 843.795,576.488 827.982,552.766 831.936,548.814 827.982,536.959 827.982,533.002 831.936,517.196 839.845,509.289
	855.652,485.573 847.743,465.808 843.795,453.948 831.936,446.038 820.081,438.138 788.45,426.272 796.362,402.556 808.219,382.789
	792.407,359.071 792.407,347.215 776.594,327.449 760.784,319.544 748.926,311.633 744.973,311.633 725.206,295.826 709.398,283.97
	697.532,276.062 693.584,276.062 685.679,256.297 673.818,244.432 654.053,232.577 646.142,224.669 669.864,189.097
	673.818,185.146 669.864,185.146 665.915,181.19 658.004,189.097 646.142,185.146 642.188,181.19 622.425,200.954 590.802,173.284
	594.76,169.332 594.76,165.375 590.802,161.422 598.713,137.702 606.617,133.747 622.425,141.656 622.425,121.893 634.292,117.938
	654.053,110.034 685.679,129.799 689.634,133.747 697.532,121.893 705.441,110.034 713.344,102.125 717.296,102.125 725.206,90.27
	729.16,70.506 725.206,66.552 729.16,62.6 733.111,70.506 744.973,78.409 772.643,66.552 776.594,58.646 780.549,66.552
	788.45,62.6 792.407,70.506 796.362,90.27 804.266,113.984 796.362,129.799 808.219,145.614 835.893,157.466 859.611,161.422
	875.424,153.52 863.557,149.568 851.701,133.747 875.424,129.799 914.951,117.938 918.902,137.702 926.806,141.656 930.759,157.466
	938.666,161.422 946.576,161.422 942.622,169.332 962.382,173.284 966.34,189.097 970.295,200.954 962.382,220.719 966.34,224.669
	990.059,260.247 1009.83,260.247 1017.732,256.297 1017.732,272.107 1041.45,276.062 1057.258,260.247 1057.258,248.389
	1073.066,240.482 1080.976,240.482 1092.831,232.577 1096.783,212.813 1100.74,212.813 1112.596,204.909 1132.371,193.05
	1148.178,177.242 1152.133,177.242 1183.752,161.422 1183.752,153.52 1179.808,145.614 1191.663,145.614 1199.559,145.614
	1207.47,137.702 1207.47,129.799 1199.559,125.844 1199.559,117.938 1207.47,113.984 1211.422,113.984 1215.38,102.125
	1211.422,90.27 1223.278,82.366 1235.141,82.366 1243.052,70.506 1239.102,62.6 1239.102,58.646 1258.865,46.786 1270.715,58.646
	1274.673,58.646 1274.673,66.552 1274.673,90.27 1286.536,121.893 1290.49,121.893 1306.302,133.747 1333.965,129.799
	1345.83,117.938 1361.637,129.799 1373.493,145.614 1373.493,177.242 1369.537,185.146 1373.493,204.909 1385.355,208.858
	1377.448,224.669 1385.355,264.196 1393.256,307.688 1397.216,323.499 1397.216,335.353 1397.216,374.884 1393.256,418.375
	1381.403,434.182 1365.594,438.138 1353.729,469.759 1353.729,473.709 1345.83,473.709 1333.965,485.573 1326.065,485.573
	1298.391,509.289 1306.302,533.002 1294.437,536.959 1294.437,544.862 1298.391,552.766 1302.345,552.766 1294.437,568.573
	1306.302,576.488 1306.302,580.442 1302.345,580.442 1298.391,576.488 1290.49,584.39 1282.583,592.296 1270.715,596.253
	1278.625,604.155 1246.999,604.155 1246.999,596.253 1243.052,588.348 1227.235,600.204 1223.278,608.11 1215.38,608.11
	1215.38,627.874 1219.325,631.83 1219.325,635.784 1219.325,655.549 1223.278,659.496 1227.235,671.356 1219.325,671.356
	1215.38,671.356 1219.325,675.312 1227.235,675.312 1231.186,687.171 1227.235,695.077 1219.325,706.936 1211.422,714.843
	1199.559,710.892 1195.615,710.892 1179.808,722.746 1152.133,710.892 1144.226,714.843 1128.414,714.843 1124.461,714.843
	1124.461,722.746 1120.504,726.698 1092.831,734.604 1088.878,734.604 1080.976,730.656 1073.066,726.698 1065.169,730.656
	1057.258,746.471 1041.45,762.279 1049.355,785.997 1053.304,809.708 1053.304,813.666 1041.45,821.572 1029.594,825.524
	1009.83,825.524 1005.877,841.338 1001.919,845.288 997.968,845.288 974.246,841.338 970.295,833.428 958.428,821.572
	942.622,813.666 934.717,817.62 930.759,825.524 934.717,825.524 930.759,833.428 922.852,829.474 907.042,853.194 891.233,845.288
	883.323,841.338 867.514,829.474 863.557,829.474 863.557,837.386 867.514,845.288 855.652,849.242 855.652,845.288
	851.701,833.428 851.701,829.474 851.701,825.524 843.795,825.524 839.845,821.572 "/>
    <path fill="none" stroke="#646464" stroke-linejoin="round" stroke-miterlimit="3.8637" d="M405.016,248.389l-3.953-11.862
	l-7.913-11.857v-11.856l3.958-3.956v-7.903l-23.718,7.903h-7.91l-7.902-19.761l-3.953-3.958l-15.812,3.958l-3.953-7.907
	l-11.859,3.949l-7.908-7.909v-3.945l-11.858-7.909l7.903-3.954l-7.903-11.854l-3.953,3.952l-3.955-3.952l3.955-7.912l-7.91-7.909
	v-3.948h-7.907l-11.852-3.955l3.952-3.951l-7.908-3.955l-7.909,11.861l-3.955,11.857h-3.947v-3.954v-7.903l3.947-3.955l-7.901-3.951
	h-11.862l-7.902,3.951h-3.953l7.902,15.813h-7.902l-11.862,3.957l-3.953-3.957v3.957l-7.903-3.957h-3.952l3.952,3.957l-3.952,7.906
	l-15.817-3.952l-11.855,3.952l7.907,11.855l-3.953,3.957l3.953,3.953l-7.907,3.945v3.96l3.954-3.96v7.909v3.958v7.907l3.953,3.951
	l-3.953,7.903l3.953,3.956v3.949l-3.953,7.907l7.901,7.908l3.955-3.952l7.907,7.902l3.955,7.912l3.952,7.903l-7.907,3.95
	l3.955,3.956v15.814l-3.955,3.952l-7.907,7.9l3.951,15.822l-3.951,3.952v11.855l3.951,7.909l7.912-7.909l11.854-3.953l11.86-3.958
	h3.955h3.953v3.958l3.949-3.958l3.953,3.958l3.955-3.958l3.952-3.945l3.955,3.945v-3.945v-3.952l7.901-3.959h3.955l7.909,11.855
	l3.956,3.958l-3.956,3.953l19.766,19.765l3.949,7.907l7.91-7.907l15.811-3.955l11.86-19.763l3.956-7.902l7.905-7.911v3.959
	l3.949-7.911l-3.949-3.957l7.905-11.855l7.907,3.957l3.953-7.909l3.955,3.952l3.947-11.865l7.91,3.958l7.907-11.859l3.952-7.906
	h15.813L405.016,248.389z M452.448-16.462h15.811v11.854l-3.948,7.906l7.903,23.719l7.906,3.955l7.907,19.764h3.951l11.86-3.945
	h3.954l-3.954-7.909h-7.908v-7.91l15.814-7.911l11.854-19.763l19.77,7.908l19.764,19.766l-3.953,7.91l-3.951,7.909h3.951l-3.951,7.9
	l7.904,15.814v3.951l15.813,15.814h7.905v7.904l7.909,15.815l-3.95,15.81l7.896,7.903l-7.896,23.719l3.95,3.954v3.957l-3.95,3.953
	l31.614,27.67l19.771-19.765l3.946,3.949l11.861,3.958l7.911-7.907l3.949,3.949h3.954l-3.954,3.958l-23.722,35.572l7.908,7.908
	l19.768,11.862l11.861,11.853l7.904,19.77h3.952l11.856,7.909l15.813,11.855l19.766,15.807h3.954l11.858,7.911l15.815,7.909
	l15.808,19.762v11.855l15.812,23.719l-11.856,19.767l-7.912,23.716l31.628,11.855l11.865,7.911l11.852,7.909l3.956,11.855
	l7.899,19.77l-15.811,23.71l-7.896,7.908l-3.957,15.812v3.95l3.957,11.861l-3.957,3.952l15.809,23.722l3.956,7.91l3.951,19.757
	l11.855,3.955l3.957,7.91l-11.864,19.765l-15.811-7.91l-23.711,7.91l-15.816,7.896l-11.862,15.824l3.957,15.807l-31.623-7.908
	l-31.628-19.763l-23.716,43.48h-7.904l-15.812-7.905l-11.86,7.905l-47.439-35.572l-11.855-7.908l-23.718-35.574l-7.905-27.669
	l-3.96-3.956v-3.954l-19.758-35.578l-3.954,7.904l-11.859,3.952h-15.815l-15.807-7.904l-7.905,19.766v7.905l-3.957,11.865
	l-7.903,15.807h-7.907l-15.81-7.908l-27.67,23.724l-3.955,3.948l-23.718,3.95l-7.905,3.956l-3.954,7.91l-11.859-15.816l-3.952-3.948
	l15.811-31.622l15.807-15.824l-7.9-11.856l-7.907-11.855l-27.673-11.859h-19.765l-15.811,39.53l-3.952-7.905H306.19l-11.862,7.905
	l-3.955,11.865l-19.759,3.941l-3.956,19.771l-3.956,3.957l-11.854,3.953l-27.671-11.865v-3.95l-39.532-7.908l3.951,7.908
	l3.957,7.905l3.955,3.957v7.901h-3.955L179.69,608.11l-11.855-11.856l-15.812-11.855l-3.953-3.956l-3.955-11.868v-11.856
	l-3.953-19.765l-3.955-15.808v-3.954v-11.854l3.955-27.67l11.86-23.72l3.95-3.953l3.954-27.675l3.953-11.854h-23.716l-3.955-11.863
	l3.955-11.861l-7.909-3.951l-3.948,3.951l-3.955-3.951l7.902-7.904L120.4,363.028l-7.91-7.907l-7.902-7.905l-3.953-3.951
	l-15.816-19.765l-15.81-27.673l11.858-11.855l3.952-3.957l-3.952-39.532l-7.901-7.905l-7.908-7.908H53.195L37.387,193.05
	l-3.955-3.953l-3.956-3.958v-11.854l3.956-7.909v-3.954l-7.908-11.854l3.952-3.955l3.956-3.957h3.955v-3.954h3.947l7.907-3.955
	l-3.947-7.903v-3.951l11.855-3.955l3.954-7.904l15.809-11.86l7.907-3.949l-7.907-3.955l-7.902-7.904l-3.952-3.958h3.952h11.858
	V66.556l27.671,15.81H120.4l11.854,3.949l-7.902-31.624l-3.952-3.955l3.952-3.945v-3.954v-3.955v-7.91l7.902-3.955l3.954,3.955
	h3.955l3.953-7.911l15.811,7.911l3.953,3.954l7.909-3.954l3.953-7.911l-7.907-7.9l-3.955-3.955V7.252l3.955-19.759l-7.908-7.907
	l-3.954-3.956v-11.854l-3.95-7.91v-3.953h-3.953l-27.67-7.902v-3.955l3.952-3.953v-3.955H120.4h-3.955l-7.907-3.955v-7.902v-7.907
	l-7.903-3.953h-7.907l-3.953-7.909h-3.956l-3.952-3.951l-3.956,3.951l-3.946-3.951v-7.908v-3.951l-3.957-11.86v-3.954v-3.953
	l3.957-3.955l-3.957-3.948v-7.908h3.957l3.946-3.955l3.956-7.908l-3.956-7.901v-3.954h3.956v-3.952v-3.955l-3.956-3.953h-7.902
	v-7.906v-7.906h3.957l7.901-3.954v3.954h3.952l3.956-3.954h7.906h3.954l3.953-3.954v-3.948v-7.907v-3.956v-11.857l3.95-3.953
	l-3.95-7.907l3.95-3.952h3.952v-3.955h3.955l3.955-3.948l3.952,3.948h3.955h7.901h7.908v-7.907h3.955l11.856,3.959l7.908-3.959
	l11.855,15.814l3.955,7.907l3.951,3.953h3.957h3.955l3.952-3.953l7.903,3.953l3.953,3.95v3.953v3.955l3.956,3.956l-3.956,3.952
	l3.956,7.903v3.954h-3.956h-7.901l3.948,11.859l-31.62,19.766l3.948,3.954v3.954l3.955,3.947l3.951,3.955v3.953l11.863,11.862
	l3.955,3.948l11.856,15.814l19.762,11.858v15.814l3.955,3.954l7.907-3.954l7.901,7.907v3.954l3.955,3.953h7.909l3.956-3.953
	l31.622,3.953h3.955l3.949-3.953h3.955l15.815,7.903h7.905l7.905,11.862h15.815h7.902l23.714-3.955l7.913-3.955v3.955h3.953
	l11.854,7.907h11.863h3.952h7.908l15.81,3.955l11.855,11.855l-7.903,3.954L452.448-16.462z"/>
    <polygon fill="none" stroke="#646464" stroke-linejoin="round" stroke-miterlimit="3.8637" points="796.362,-241.781
	796.362,-237.829 800.312,-233.874 808.219,-229.922 808.219,-225.969 792.407,-222.019 788.45,-222.019 784.498,-218.065
	776.599,-218.065 776.599,-210.158 780.544,-202.256 776.599,-198.301 768.691,-194.347 772.643,-186.441 772.643,-174.586
	764.734,-170.631 764.734,-174.586 752.876,-166.675 752.876,-154.816 748.926,-150.862 744.971,-146.908 733.111,-146.908
	729.156,-146.908 721.257,-158.769 705.44,-158.769 693.584,-154.816 673.818,-146.908 689.627,-127.145 697.536,-131.097
	705.44,-123.19 709.392,-111.333 689.627,-107.381 661.958,-135.052 658.004,-135.052 654.051,-123.19 650.094,-123.19
	654.051,-119.235 654.051,-103.427 646.142,-95.518 630.334,-79.709 626.382,-71.802 626.382,-63.898 630.334,-59.947
	610.569,-59.947 606.617,-52.04 598.707,-52.04 594.76,-44.136 590.81,-52.04 590.81,-55.99 582.897,-52.04 578.946,-48.084
	582.897,-32.274 586.851,-28.32 582.897,-20.418 578.946,-16.466 582.897,-16.466 578.946,-8.555 574.986,-4.602 567.09,-12.51
	551.274,3.304 543.369,11.207 523.599,3.304 511.745,23.068 495.93,30.973 495.93,38.877 503.839,38.877 507.793,46.786
	503.839,46.786 491.978,50.737 488.027,50.737 480.12,30.973 472.214,27.023 464.31,3.304 468.259,-4.602 468.259,-16.466
	452.448,-16.466 460.355,-40.182 468.259,-44.136 456.403,-55.99 440.594,-59.947 432.685,-59.947 428.733,-59.947 416.87,-59.947
	405.016,-67.853 401.063,-67.853 401.063,-71.802 393.15,-67.853 369.436,-63.898 361.533,-63.898 345.719,-63.898 337.814,-75.754
	329.909,-75.754 314.094,-83.661 310.139,-83.661 306.19,-79.709 302.236,-79.709 270.614,-83.661 266.658,-79.709 258.75,-79.709
	254.795,-83.661 254.795,-87.616 246.894,-95.518 238.987,-91.571 235.032,-95.518 235.032,-111.333 215.27,-123.19
	203.414,-139.005 199.459,-142.96 187.595,-154.816 187.595,-158.769 183.645,-162.724 179.69,-166.675 179.69,-170.631
	175.742,-174.586 207.362,-194.347 203.414,-206.203 211.315,-206.203 215.27,-206.203 215.27,-210.158 211.315,-218.065
	215.27,-222.019 211.315,-225.969 211.315,-229.922 211.315,-233.874 207.362,-237.829 199.459,-241.781 195.507,-237.829
	191.552,-237.829 187.595,-237.829 183.645,-241.781 179.69,-249.691 167.835,-265.501 175.742,-265.501 187.595,-265.501
	199.459,-265.501 199.459,-261.547 207.362,-265.501 203.414,-269.454 207.362,-277.363 215.27,-281.31 223.177,-281.31
	231.079,-273.408 238.987,-273.408 242.943,-265.501 246.894,-265.501 246.894,-269.454 250.848,-273.408 258.75,-277.363
	262.702,-277.363 274.566,-273.408 278.516,-273.408 282.466,-281.31 286.424,-281.31 294.328,-277.363 298.283,-277.363
	302.236,-273.408 306.19,-273.408 314.094,-269.454 318.046,-269.454 333.861,-273.408 341.763,-269.454 345.719,-265.501
	349.671,-261.547 349.671,-265.501 353.626,-265.501 353.626,-269.454 353.626,-273.408 357.578,-277.363 361.533,-281.31
	369.436,-281.31 373.391,-281.31 373.391,-289.218 389.205,-293.173 401.063,-293.173 412.916,-293.173 416.87,-293.173
	420.825,-293.173 432.685,-297.128 436.64,-297.128 444.541,-289.218 448.495,-293.173 452.448,-293.173 456.403,-293.173
	460.355,-301.08 460.355,-305.034 472.214,-305.034 476.167,-301.08 476.167,-297.128 472.214,-297.128 476.167,-293.173
	480.12,-289.218 480.12,-297.128 480.12,-301.08 484.075,-297.128 491.978,-301.08 488.027,-305.034 491.978,-308.983
	491.978,-312.937 495.93,-312.937 495.93,-316.887 495.93,-336.653 495.93,-340.608 503.839,-344.56 503.839,-348.514
	503.839,-356.416 503.839,-364.323 503.839,-372.231 507.793,-372.231 511.745,-380.135 515.695,-384.089 511.745,-388.042
	515.695,-391.995 523.599,-399.902 527.557,-395.948 531.51,-395.948 539.415,-403.857 543.369,-403.857 559.179,-415.715
	559.179,-423.62 574.986,-431.527 582.897,-423.62 586.851,-423.62 590.81,-423.62 594.76,-423.62 598.707,-423.62
	598.707,-411.764 598.707,-407.812 602.662,-403.857 602.662,-399.902 610.569,-395.948 610.569,-391.995 614.519,-391.995
	618.477,-391.995 622.425,-391.995 626.382,-391.995 630.334,-391.995 626.382,-395.948 630.334,-395.948 634.285,-403.857
	642.196,-403.857 650.094,-399.902 650.094,-395.948 654.051,-395.948 658.004,-391.995 665.915,-388.042 665.915,-384.089
	669.864,-384.089 673.818,-384.089 673.818,-376.185 665.915,-368.278 665.915,-364.323 661.958,-360.37 665.915,-352.469
	669.864,-348.514 673.818,-348.514 677.771,-356.416 681.724,-360.37 685.679,-360.37 689.627,-360.37 689.627,-356.416
	697.536,-356.416 697.536,-360.37 701.492,-364.323 701.492,-368.278 705.44,-372.231 705.44,-368.278 705.44,-364.323
	713.344,-364.323 717.303,-364.323 721.257,-360.37 729.156,-360.37 733.111,-348.514 737.063,-344.56 737.063,-336.653
	733.111,-332.7 729.156,-324.795 733.111,-324.795 733.111,-328.751 752.876,-332.7 752.876,-336.653 760.784,-348.514
	764.734,-348.514 772.643,-360.37 776.599,-360.37 780.544,-360.37 784.498,-364.323 796.362,-368.278 804.266,-372.231
	808.219,-368.278 812.171,-368.278 812.171,-364.323 816.129,-364.323 820.078,-364.323 824.03,-352.469 839.84,-352.469
	839.84,-340.608 831.943,-336.653 827.986,-324.795 820.078,-324.795 816.129,-324.795 816.129,-316.887 812.171,-308.983
	784.498,-301.08 780.544,-301.08 776.599,-301.08 768.691,-297.128 768.691,-293.173 772.643,-293.173 772.643,-285.265
	776.599,-285.265 780.544,-281.31 792.407,-269.454 800.312,-265.501 792.407,-265.501 "/>
    <polygon fill="none" stroke="#646464" stroke-width="2.835" stroke-linecap="round" stroke-linejoin="round" points="
	1148.178,177.235 1132.359,193.044 1112.596,204.904 1100.74,212.813 1096.783,212.813 1092.831,232.577 1080.976,240.476
	1073.066,240.476 1057.258,248.389 1057.258,260.251 1041.45,276.062 1017.732,272.107 1017.732,256.297 1009.82,260.251
	990.059,260.251 966.34,224.669 962.382,220.712 970.295,200.95 966.34,189.097 962.382,173.282 942.622,169.332 946.576,161.422
	938.672,161.422 930.759,157.471 926.806,141.656 918.902,137.707 914.951,117.944 875.42,129.803 851.701,133.752 863.563,149.568
	875.42,153.517 859.611,161.422 835.893,157.471 808.222,145.614 796.358,129.803 804.266,113.989 796.358,90.265 792.407,70.5
	788.45,62.596 780.549,66.552 776.594,58.64 772.643,66.552 744.971,78.409 733.115,70.5 729.16,62.596 725.206,66.552 729.16,70.5
	725.206,90.265 717.296,102.129 713.344,102.129 705.441,110.039 697.536,121.893 689.627,133.752 685.674,129.803 654.053,110.039
	634.285,117.944 622.432,121.893 622.432,141.656 606.617,133.752 598.713,137.707 590.802,129.803 594.76,113.989 586.848,98.174
	586.848,90.265 578.948,90.265 563.133,74.456 563.133,70.5 555.224,54.691 559.179,46.786 555.224,46.786 559.179,38.877
	563.133,30.973 543.369,11.207 551.274,3.304 567.09,-12.51 574.995,-4.602 578.948,-8.555 582.897,-16.461 578.948,-16.461
	582.897,-20.418 586.848,-28.32 582.897,-32.274 578.948,-48.084 582.897,-52.04 590.802,-55.99 590.802,-52.04 594.76,-44.136
	598.713,-52.04 606.617,-52.04 610.567,-59.947 630.334,-59.947 626.382,-63.898 626.382,-71.802 630.334,-79.709 646.142,-95.518
	654.053,-103.427 654.053,-119.235 650.1,-123.19 654.053,-123.19 658.004,-135.052 661.955,-135.052 689.627,-107.381
	709.398,-111.333 705.441,-123.19 697.536,-131.097 689.627,-127.145 673.818,-146.908 693.584,-154.816 705.441,-158.769
	721.253,-158.769 729.16,-146.908 733.115,-146.908 744.971,-146.908 748.926,-150.862 752.879,-154.816 752.879,-166.678
	764.734,-174.586 764.734,-170.631 772.643,-174.586 772.643,-186.441 768.691,-194.347 776.594,-198.301 780.549,-202.256
	776.594,-210.158 776.594,-218.065 784.506,-218.065 788.45,-222.019 792.407,-222.019 808.222,-225.969 808.222,-229.922
	800.312,-233.874 796.358,-237.829 796.358,-241.781 792.407,-265.501 800.312,-265.501 792.407,-269.454 780.549,-281.31
	776.594,-285.265 772.643,-285.265 772.643,-293.173 768.691,-293.173 768.691,-297.128 776.594,-301.08 780.549,-301.08
	784.506,-301.08 812.171,-308.983 816.12,-316.887 816.12,-324.8 820.078,-324.8 827.986,-324.8 831.936,-336.653 839.845,-340.608
	843.801,-344.56 843.801,-336.653 859.611,-344.56 863.563,-344.56 871.466,-340.608 875.42,-336.653 883.33,-336.653
	887.276,-316.887 891.233,-316.887 895.185,-316.887 903.094,-312.937 907.042,-305.034 914.951,-301.08 926.806,-301.08
	930.759,-297.128 938.672,-305.034 950.526,-305.034 950.526,-308.983 950.526,-312.937 954.481,-328.751 958.438,-324.8
	962.382,-320.842 970.295,-328.751 978.196,-324.8 982.147,-312.937 986.105,-312.937 994.012,-305.034 994.012,-301.08
	997.958,-301.08 997.958,-312.937 1005.865,-324.8 1005.865,-332.7 1013.775,-336.653 1017.732,-340.608 1009.82,-348.514
	1025.629,-352.469 1033.539,-352.469 1041.45,-356.416 1049.347,-352.469 1049.347,-348.514 1053.304,-348.514 1057.258,-336.653
	1061.211,-336.653 1061.211,-332.7 1069.121,-312.937 1065.169,-305.034 1077.024,-289.218 1073.066,-289.218 1080.976,-281.31
	1077.024,-277.363 1065.169,-273.408 1065.169,-265.501 1073.066,-257.594 1073.066,-253.639 1065.169,-225.969 1065.169,-214.11
	1061.211,-214.11 1057.258,-198.301 1053.304,-198.3 1053.304,-194.347 1065.169,-182.489 1080.976,-170.631 1084.932,-170.631
	1088.886,-162.724 1084.932,-158.769 1080.976,-158.769 1080.976,-146.908 1080.976,-142.96 1065.169,-146.908 1061.211,-146.908
	1049.347,-135.052 1057.258,-119.235 1057.258,-115.287 1080.976,-107.381 1080.976,-99.474 1088.886,-75.754 1084.932,-59.947
	1084.932,-52.04 1100.74,-32.274 1100.74,-28.32 1104.695,-28.32 1132.359,-4.602 1140.268,-0.645 1128.414,19.12 1148.178,34.927
	1148.178,38.877 1152.133,38.877 1163.985,46.786 1183.752,46.786 1187.705,38.877 1191.663,46.786 1207.47,42.833 1215.38,46.786
	1227.235,58.64 1243.043,70.5 1235.141,82.366 1223.278,82.366 1211.422,90.265 1215.38,102.129 1211.422,113.989 1207.47,113.989
	1199.571,117.944 1199.571,125.847 1207.47,129.803 1207.47,137.707 1199.571,145.614 1191.663,145.614 1179.808,145.614
	1183.752,153.517 1183.752,161.422 1152.133,177.235 "/>
    <polygon fill="none" stroke="#646464" stroke-width="2.835" stroke-linecap="round" stroke-linejoin="round" points="
	-140.499,817.62 -144.452,833.428 -144.452,845.288 -148.404,845.288 -148.404,833.428 -152.361,825.524 -164.218,833.428
	-164.218,837.386 -168.168,841.336 -176.076,833.428 -187.932,829.482 -195.84,829.482 -199.795,821.574 -199.795,809.708
	-203.742,801.81 -219.558,813.666 -227.461,821.574 -231.413,829.482 -235.368,829.482 -243.276,833.428 -259.092,837.386
	-259.092,833.428 -263.04,825.524 -263.04,817.62 -266.994,805.762 -266.994,801.81 -263.04,785.991 -263.04,762.279
	-263.04,758.322 -259.092,758.322 -270.947,754.368 -255.138,742.513 -270.947,710.885 -266.994,706.936 -278.853,691.127
	-270.947,683.216 -266.994,683.216 -259.092,671.361 -255.138,647.642 -243.276,639.735 -227.461,631.83 -227.461,623.918
	-239.323,627.874 -255.138,604.155 -259.092,576.488 -255.138,572.532 -243.276,564.627 -243.276,560.676 -247.23,552.766
	-247.23,544.862 -247.23,536.959 -251.183,529.048 -255.138,505.33 -247.23,497.426 -251.183,489.522 -247.23,473.709
	-247.23,457.897 -251.183,453.942 -263.04,453.942 -274.902,434.182 -286.764,418.367 -294.665,418.367 -314.43,430.23
	-334.198,406.507 -338.145,406.507 -342.1,406.507 -350.007,398.602 -350.007,386.745 -350.007,382.789 -346.053,378.835
	-338.145,374.884 -338.145,370.926 -346.053,370.926 -353.96,363.028 -357.915,355.118 -357.915,351.165 -346.053,343.264
	-338.145,339.308 -330.245,339.308 -326.29,335.353 -330.245,327.449 -326.29,311.639 -322.338,307.682 -314.43,299.778
	-314.43,295.826 -314.43,287.914 -314.43,283.97 -306.524,280.014 -306.524,272.107 -310.478,260.251 -294.665,256.297
	-286.764,264.196 -270.947,264.196 -263.04,256.297 -263.04,240.476 -266.994,232.577 -259.092,236.534 -251.183,244.432
	-235.368,252.342 -235.368,264.196 -231.413,272.107 -227.461,272.107 -215.604,280.014 -203.742,295.826 -191.889,299.778
	-183.98,287.914 -176.076,291.869 -156.315,283.97 -164.218,276.062 -172.124,268.149 -164.218,256.297 -160.262,252.342
	-156.315,248.389 -148.404,260.251 -136.545,248.389 -124.688,228.625 -116.781,220.712 -112.826,228.625 -108.874,224.669
	-97.017,240.476 -89.11,220.712 -81.203,216.762 -61.438,236.534 -53.538,232.577 -57.485,232.577 -61.438,224.669 -65.391,212.813
	-73.298,208.858 -85.155,193.044 -89.11,185.139 -93.063,173.284 -89.11,165.375 -69.345,165.375 -61.438,169.332 -53.538,157.471
	-49.582,157.471 -45.627,157.471 -37.72,149.568 -25.863,157.471 -14.005,161.422 -6.103,153.52 1.805,153.52 17.616,153.52
	21.569,153.52 25.524,153.52 25.524,149.568 33.432,161.422 33.432,165.375 29.479,173.284 29.479,185.139 33.432,189.097
	37.387,193.044 53.195,224.669 65.057,224.669 72.966,232.577 80.867,240.476 84.822,280.014 80.867,283.97 69.009,295.826
	84.822,323.494 100.635,343.264 104.59,347.215 112.492,355.118 120.4,363.028 132.257,374.884 124.352,382.789 128.307,386.745
	132.257,382.789 140.163,386.745 136.208,398.602 140.163,410.465 163.88,410.465 159.928,422.32 155.973,449.994 152.023,453.942
	140.163,477.66 136.208,505.33 136.208,517.196 136.208,521.145 140.163,536.959 144.116,556.722 144.116,568.583 148.071,580.435
	152.023,584.39 167.835,596.253 179.69,608.11 191.552,619.965 191.552,631.83 191.552,639.735 183.645,651.59 179.69,659.496
	183.645,675.309 187.599,695.077 191.552,702.982 187.599,706.936 187.599,726.698 183.645,730.65 179.69,742.513 167.835,754.368
	167.835,762.279 163.88,770.184 144.116,770.184 128.307,778.093 136.208,785.991 132.257,793.9 128.307,801.81 120.4,809.708
	108.538,821.574 88.775,829.482 88.775,837.386 88.775,845.288 61.103,849.242 41.334,857.151 45.289,869.007 49.241,884.814
	45.289,888.774 37.387,892.726 33.432,896.683 25.524,904.587 17.616,912.49 -6.103,916.443 -10.05,900.63 -14.005,888.774
	-10.05,884.814 -17.957,880.868 -17.957,869.007 -21.912,865.054 -25.863,865.054 -37.72,861.098 -41.676,857.151 -61.438,833.428
	-65.391,837.386 -73.298,841.336 -85.155,849.242 -81.203,865.054 -97.017,865.054 -104.919,869.007 -112.826,872.96
	-120.733,869.007 -136.545,861.098 -132.592,845.288 -136.545,833.428 -132.592,829.482 "/>
    <polygon fill="none" stroke="#646464" stroke-width="2.835" stroke-linecap="round" stroke-linejoin="round" points="
	1614.626,-384.09 1618.583,-388.042 1618.583,-391.997 1622.536,-391.997 1626.493,-391.997 1630.445,-388.042 1630.445,-384.09
	1634.391,-380.135 1638.344,-380.135 1638.344,-391.997 1646.253,-391.997 1650.212,-391.997 1654.156,-388.042 1658.108,-388.042
	1658.108,-391.997 1662.064,-391.997 1666.018,-391.997 1662.064,-395.951 1662.064,-399.905 1666.018,-399.905 1669.974,-399.905
	1673.931,-403.854 1673.931,-407.807 1681.827,-407.807 1681.827,-411.761 1685.785,-411.761 1689.738,-411.761 1693.692,-415.715
	1697.645,-415.715 1693.692,-419.668 1697.645,-419.668 1705.547,-415.715 1709.503,-407.807 1725.32,-403.854 1729.264,-403.854
	1745.077,-403.854 1752.982,-403.854 1760.895,-407.807 1772.748,-407.807 1776.705,-411.761 1776.705,-407.807 1780.659,-407.807
	1780.659,-411.761 1780.659,-415.715 1784.613,-415.715 1788.557,-411.761 1792.512,-415.715 1796.466,-415.715 1800.424,-415.715
	1796.466,-407.807 1800.424,-407.807 1800.424,-411.761 1804.376,-411.761 1808.322,-415.715 1808.322,-419.668 1812.288,-415.715
	1816.233,-415.715 1816.233,-419.668 1816.233,-423.62 1820.187,-423.62 1824.143,-423.62 1824.143,-427.571 1824.143,-431.526
	1824.143,-435.478 1828.096,-439.433 1832.049,-439.433 1832.049,-443.385 1832.049,-447.34 1836.007,-443.385 1839.952,-443.385
	1839.952,-447.34 1836.007,-451.288 1839.952,-451.288 1843.904,-447.34 1843.904,-443.385 1843.904,-439.433 1847.862,-435.478
	1847.862,-439.433 1847.862,-443.385 1851.814,-443.385 1855.77,-443.385 1851.814,-451.288 1859.716,-447.34 1867.621,-447.34
	1879.477,-455.242 1883.434,-455.242 1887.385,-451.288 1891.344,-451.288 1895.289,-451.288 1895.289,-455.242 1895.289,-459.197
	1899.241,-463.149 1903.197,-467.104 1903.197,-471.056 1907.153,-471.056 1915.052,-478.961 1919.007,-482.915 1922.96,-486.867
	1926.92,-490.821 1926.92,-498.727 1934.826,-502.681 1938.772,-506.636 1942.727,-510.584 1946.679,-514.539 1954.591,-518.492
	1954.591,-510.584 1958.543,-510.584 1966.445,-506.636 1966.445,-502.681 1966.445,-498.727 1970.398,-498.727 1970.398,-502.681
	1970.398,-506.636 1974.356,-506.636 1978.308,-506.636 1978.308,-510.584 1974.356,-518.492 1986.219,-518.492 1986.219,-530.348
	1986.219,-534.307 1990.163,-538.255 1994.115,-534.307 1990.163,-530.348 1994.115,-530.348 1998.073,-530.348 1994.115,-534.307
	1994.115,-538.255 1998.073,-542.21 1998.073,-546.162 1994.115,-546.162 1998.073,-550.117 1998.073,-554.072 2005.971,-550.117
	2005.971,-554.072 2002.029,-558.025 1998.073,-558.025 1998.073,-561.974 2002.029,-561.974 2005.971,-561.974 2009.928,-558.025
	2009.928,-565.927 2005.971,-565.927 2002.029,-565.927 2002.029,-569.881 2002.029,-573.835 2002.029,-577.788 1998.073,-577.788
	1994.115,-573.835 1990.163,-573.835 1986.219,-569.881 1982.264,-573.835 1978.308,-581.743 1974.356,-577.788 1970.398,-577.788
	1966.445,-573.835 1962.492,-577.788 1958.543,-581.743 1954.591,-585.691 1950.636,-585.691 1946.679,-581.743 1938.772,-577.788
	1934.826,-573.835 1930.871,-573.835 1926.92,-573.835 1922.96,-573.835 1919.007,-573.835 1911.107,-573.835 1907.153,-573.835
	1903.197,-569.881 1899.241,-569.881 1895.289,-565.927 1891.344,-561.974 1895.289,-558.025 1887.385,-561.974 1883.434,-561.974
	1879.477,-561.974 1875.524,-561.974 1875.524,-558.025 1871.578,-558.025 1871.578,-561.974 1867.621,-561.974 1867.621,-558.025
	1863.669,-558.025 1863.669,-550.117 1859.716,-554.072 1855.77,-554.072 1855.77,-558.025 1847.862,-558.025 1843.904,-558.025
	1839.952,-558.025 1839.952,-550.117 1839.952,-546.162 1839.952,-542.21 1839.952,-538.255 1839.952,-534.307 1836.007,-530.348
	1832.049,-530.348 1832.049,-534.307 1824.143,-534.307 1820.187,-538.255 1816.233,-538.255 1812.288,-534.307 1808.322,-538.255
	1804.376,-534.307 1800.424,-534.307 1796.466,-542.21 1788.557,-542.21 1776.705,-542.21 1772.748,-546.162 1768.796,-550.117
	1768.796,-554.072 1768.796,-558.025 1764.838,-558.025 1764.838,-561.974 1764.838,-565.927 1760.895,-569.881 1756.94,-573.835
	1752.982,-577.788 1745.077,-577.788 1745.077,-581.743 1741.133,-585.691 1741.133,-597.553 1737.176,-601.506 1733.223,-613.361
	1729.264,-617.316 1725.32,-621.268 1721.368,-625.224 1721.368,-629.176 1721.368,-633.13 1713.458,-641.032 1713.458,-648.94
	1713.458,-664.753 1709.503,-668.704 1705.547,-680.566 1701.594,-676.612 1697.645,-680.566 1693.692,-680.566 1689.738,-672.659
	1681.827,-676.612 1677.874,-680.566 1669.974,-676.612 1666.018,-680.566 1662.064,-684.518 1658.108,-688.469 1654.156,-700.331
	1654.156,-708.238 1646.253,-716.14 1642.302,-716.14 1642.302,-720.094 1638.344,-720.094 1634.391,-724.048 1626.493,-724.048
	1618.583,-731.957 1614.626,-731.957 1606.729,-739.859 1602.77,-739.859 1598.818,-735.907 1598.818,-728 1594.874,-720.094
	1590.916,-720.094 1586.963,-720.094 1583.008,-720.094 1579.051,-720.094 1575.107,-716.14 1571.154,-716.14 1551.388,-716.14
	1543.48,-716.14 1543.48,-720.094 1539.526,-720.094 1535.57,-712.186 1543.48,-712.186 1539.526,-712.186 1535.57,-708.238
	1539.526,-708.238 1539.526,-704.283 1535.57,-700.331 1535.57,-696.376 1535.57,-692.423 1531.613,-688.469 1531.613,-684.518
	1527.662,-684.518 1511.855,-688.469 1527.662,-684.518 1531.613,-684.518 1531.613,-688.469 1535.57,-692.423
	1535.57,-696.376 1535.57,-700.331 1539.526,-704.283 1539.526,-708.238 1535.57,-708.238 1539.526,-712.186 1543.48,-712.186
	1535.57,-712.186 1539.526,-720.094 1543.48,-720.094 1543.48,-716.14 1551.388,-716.14 1571.154,-716.14 1575.107,-716.14
	1579.051,-720.094 1583.008,-720.094 1586.963,-720.094 1590.916,-720.094 1594.874,-720.094 1598.818,-728 1598.818,-735.907
	1602.77,-739.859 1606.729,-739.859 1614.626,-731.957 1618.583,-731.957 "/>
</svg>
